<svg xmlns="http://www.w3.org/2000/svg" shape-rendering="geometricPrecision" text-rendering="geometricPrecision" image-rendering="optimizeQuality" fill-rule="evenodd" clip-rule="evenodd" viewBox="0 0 466 512.14"><path d="M232.2 0c86.89 55.08 165.39 81.13 232.75 74.98 11.77 237.97-76.11 378.5-231.86 437.16C82.7 457.24-6.26 322.75.34 71.36 79.42 75.5 157.01 58.41 232.2 0zM88.55 147.71a9 9 0 0 1-3.11-6.8c0-4.71 4.01-8.73 8.72-8.73 8.37 0 17.33-.56 25.45 1.74 18.33 5.18 21.73 18.55 25.54 33.84h199.11c4.92 0 8.73 4.02 8.73 8.72 0 .9-.24 1.79-.46 2.69l-22.81 92.37c-.9 4.03-4.47 6.71-8.49 6.71H174.67c3.14 11.63 6.25 17.89 10.51 20.81 5.87 3.83 18.4 3.46 25.27 3.4 35.02-.3 73.5-.05 108.53-.05 4.92 0 8.72 4.02 8.72 8.73 0 4.93-4.01 8.73-8.72 8.73-35.13 0-73.66-.12-108.78.03-11.4.06-25.03.17-34.84-6.28-9.4-6.26-14.32-17.01-19.24-36.46L127.6 168.47c-2.32-8.3-3.56-15.58-13.91-17.92-3.8-.86-9.59-.83-14.49-.75-3.82.06-7.49.66-10.65-2.09zm181.67 63.44c0-2.75 2.73-4.99 6.08-4.99 3.36 0 6.09 2.24 6.09 4.99v23.11c0 2.75-2.73 4.99-6.09 4.99-3.35 0-6.08-2.24-6.08-4.99v-23.11zm-38.13 0c0-2.75 2.73-4.99 6.08-4.99s6.08 2.24 6.08 4.99v23.11c0 2.75-2.73 4.99-6.08 4.99s-6.08-2.24-6.08-4.99v-23.11zm-38.12 0c0-2.75 2.73-4.99 6.08-4.99 3.36 0 6.09 2.24 6.09 4.99v23.11c0 2.75-2.73 4.99-6.09 4.99-3.35 0-6.08-2.24-6.08-4.99v-23.11zm-43.9-25.09 19.91 73.65H314.5l18.56-73.65H150.07zm142.74 144.08c11.87 0 21.48 9.61 21.48 21.48 0 11.87-9.61 21.48-21.48 21.48-11.84 0-21.47-9.61-21.47-21.48 0-11.87 9.63-21.48 21.47-21.48zm-93.72.35c10.02 1.81 17.65 10.58 17.65 21.13 0 11.87-9.61 21.48-21.48 21.48-11.86 0-21.47-9.61-21.47-21.48 0-10.62 7.68-19.43 17.8-21.16 2.48-.43 5.04-.42 7.5.03zm33.24-296.25c73.86 46.81 144.75 73.13 202.01 67.89 10 202.28-68.87 325.91-201.24 375.77C105.25 431.23 25.47 312.75 31.08 99.06c74.18 3.89 142.17-18.92 201.25-64.82z"/></svg>