<svg xmlns="http://www.w3.org/2000/svg" shape-rendering="geometricPrecision" text-rendering="geometricPrecision" image-rendering="optimizeQuality" fill-rule="evenodd" clip-rule="evenodd" viewBox="0 0 512 466.386"><path d="M152.978 281.404l30.311 89.778 16.903-42.476-8.288-9.052c-6.225-9.103-4.087-19.431 7.454-21.298 3.896-.633 8.278-.241 12.516-.241 4.485 0 9.481-.415 13.737.521 10.71 2.366 11.828 12.753 6.488 21.018l-8.288 9.052 16.903 42.476 27.719-90.772c-3.38-4.887-6.351-10.319-9.014-15.77l-3.565 3.378c-15.71 15.162-31.561 22.428-47.986 22.27-16.278-.156-32.201-7.616-48.272-21.912l-1.338-1.188c-1.47 4.817-3.146 9.673-5.28 14.216zm211.704 44.251l17.713 16.662c13.893-14.123 27.749-28.293 41.687-42.371 4.136-4.039 7.584-5.98 13.376-.045l16.387 16.76c3.215 3.189 4.736 5.884 4.693 8.751-.045 2.891-1.66 5.476-4.713 8.469l-60.127 59.033-2.933 2.929c-3.881 3.915-5.903 5.957-8.811 6.01-3.095.055-5.376-2.219-10.114-6.961-12.743-12.726-26.211-25.421-38.604-38.39-3.435-3.755-3.134-7.465.525-11.124 6.485-6.176 12.676-13.359 19.062-19.744 1.971-2.005 3.883-2.944 5.958-2.904 2.042.043 3.926 1.046 5.901 2.925zm30.074-93.756c32.372 0 61.687 13.125 82.904 34.342C498.876 287.457 512 316.77 512 349.142c0 32.371-13.124 61.686-34.34 82.903-21.217 21.216-50.532 34.341-82.904 34.341s-61.684-13.125-82.901-34.341a117.788 117.788 0 01-15.671-19.405l.049.076H0c0-121.56 71.438-75.942 144.558-136.69 2.246-5.028 3.964-10.583 5.512-15.955-12.098-10.616-21.939-20.963-24.99-41.716a22.035 22.035 0 01-7.055-2.55c-5.419-3.078-9.116-8.113-11.539-13.732-2.631-6.095-3.815-13.172-4.086-18.494-.503-9.82-.612-19.849 5.769-27.926 1.513-1.918 3.179-3.309 4.992-4.263-1.506-26.644 3.217-69.333-24.323-77.661C142.907 6.916 205.227-29.424 252.023 30.012c52.404 2.752 73.52 81.121 40.067 122.466l-.16 2.04c3.714-.017 7.306.785 10.522 2.5 4.296 2.296 7.573 5.969 9.252 11.181 1.455 4.519 1.57 10.084-.22 16.702-.106.399-.234.788-.38 1.165l-6.788 19.226c-1.472 4.182-2.897 7.192-6.366 9.95l.017.021c-2.711 2.157-5.679 3.288-9.566 3.568-1.773 17.655-10.191 27.785-21.47 38.691 2.869 6.116 6.123 12.311 9.881 17.668a64.585 64.585 0 002.364 3.164 143.414 143.414 0 0015.134 10.294 117.773 117.773 0 0117.545-22.407c21.217-21.217 50.529-34.342 82.901-34.342zm0 17.629c55.018 0 99.616 44.598 99.616 99.614 0 55.017-44.598 99.616-99.616 99.616-55.015 0-99.614-44.599-99.614-99.616 0-55.016 44.599-99.614 99.614-99.614zM114.04 168.572c3.699-10.585 12.301-7.18 24.555-2.709-4.894-22.196.886-39.536 18.26-51.553 37.073-25.65 48.186-3.697 88.371-36.054 23.085 11.627 43.74 31.282 33.214 92.691 11.141-8.442 27.207-7.657 22.153 11.045l-6.903 19.552c-1.65 4.678-2.755 6.372-8.668 6.058-2.61-.138-5.24-1.145-7.86-2.877 2.42 28.849-11.588 38.266-29.114 55.18-26.994 26.048-52.937 24.973-80.955.048-16.41-14.596-30.992-23.467-31.717-53.479-4.258 1.303-8.284 1.54-11.796-.459-7.002-3.981-9.555-15.582-9.935-23.01-.153-2.983-.026-11.391.395-14.433z"/></svg>