<svg xmlns="http://www.w3.org/2000/svg" shape-rendering="geometricPrecision" text-rendering="geometricPrecision" image-rendering="optimizeQuality" fill-rule="evenodd" clip-rule="evenodd" viewBox="0 0 512 465.919"><path d="M47.423 255.064c36.568-2.971 50.009-40.961 54.515-80.353 6.863-60.306-2.658-137.895 69.92-167.231 57.632-23.307 132.158 8.069 140.286 91.1-.257 42.927 8.87 108.736 35.491 139.567 14.112-5.931 29.61-9.21 45.873-9.21 32.717 0 62.344 13.264 83.786 34.706C498.736 285.086 512 314.71 512 347.427c0 32.716-13.264 62.343-34.706 83.786-21.442 21.442-51.069 34.706-83.786 34.706-32.716 0-62.341-13.264-83.783-34.706a119.17 119.17 0 01-15.026-18.37H0c8.534-84.081 36.531-110.879 91.162-135.118-21.218-2.555-39.575-10.936-43.739-22.661zm228.874 74.905c2.908-19.694 10.668-37.809 22.018-53.102l-1.648-2.098c-24.118-3.674-44.564-14.004-46.159-32.657-11.846 7.702-25.524 12.489-40.684 12.987-14.782.485-29.683-3.172-42.595-11.466-4.761 17.811-20.58 27.994-39.265 32.354-10.187 13.008-19.221 26.884-26.904 42.3l33.855-.825 77.883 67.725 63.499-55.218zm-89.718 14.584l15.427-53.54-7.563-8.273c-3.413-4.972-4.153-9.327-2.262-13.071 4.092-8.102 12.572-6.593 20.487-6.593 8.299 0 18.543-1.569 21.139 8.814.866 3.472-.225 7.107-2.654 10.85l-7.564 8.273 15.427 53.54-26.218 20.715-26.219-20.715zm176.532-20.862l17.903 16.839c14.04-14.274 28.044-28.594 42.13-42.823 4.18-4.081 7.663-6.043 13.518-.045l16.559 16.936c3.252 3.223 4.789 5.951 4.746 8.847-.046 2.923-1.68 5.532-4.763 8.559l-60.768 59.661-2.964 2.961c-3.922 3.956-5.966 6.02-8.905 6.074-3.128.056-5.433-2.243-10.221-7.036-12.879-12.861-26.49-25.692-39.015-38.799-3.472-3.794-3.167-7.544.53-11.242 6.555-6.241 12.812-13.501 19.265-19.954 1.99-2.027 3.924-2.98 6.022-2.935 2.063.044 3.967 1.057 5.963 2.957zm30.397-76.938c55.604 0 100.677 45.072 100.677 100.674 0 55.603-45.073 100.676-100.677 100.676-55.601 0-100.674-45.073-100.674-100.676 0-55.602 45.073-100.674 100.674-100.674zM257.638 223.6c32.078-35.478 36.949-71.189 27.807-116.761-22.053-10.221-36.479-32.692-43.868-66.452-8.829 64.273-87.761 61.515-107.61 73.21 0 39.517-2.383 80.135 26.735 111.534 26.522 28.599 71.867 25.017 96.936-1.531z"/></svg>