<svg xmlns="http://www.w3.org/2000/svg" shape-rendering="geometricPrecision" text-rendering="geometricPrecision" image-rendering="optimizeQuality" fill-rule="evenodd" clip-rule="evenodd" viewBox="0 0 512 467.447"><path d="M78.922 209.101c50.836-19.143 14.42-104.655 29.058-147.072 20.558-59.487 96.563-79.814 138.909-45.009 33.2-3.535 66.655 13.591 73.876 64.784 5.901 41.875-25.69 107.602 22.869 130.955-22.361 21.424-56.883 23.245-86.085 24.812v17.941l24.876 33.236-71.185 56.621-71.111-56.112 18.99-31.896v-19.282c-31.335-1.486-58.347-2.953-80.197-28.978zm314.198 20.587c32.824 0 62.547 13.308 84.06 34.82 21.513 21.513 34.82 51.235 34.82 84.058 0 32.824-13.307 62.548-34.82 84.06-21.513 21.513-51.236 34.821-84.06 34.821-32.824 0-62.545-13.308-84.058-34.821a119.609 119.609 0 01-15.079-18.439l-287.69.009A6.29 6.29 0 010 407.903C0 307.254 70.177 288.4 147.183 258.806c-16.278 17.634-30.241 36.395-41.265 58.513l31.918-.776 71.663 57.23 67.657-51.476-.003.011a118.271 118.271 0 0117.537-40.417c-5.996-8.006-12.453-15.646-19.319-23.085 9.741 3.768 19.382 7.338 28.794 10.902a119.685 119.685 0 014.897-5.2c21.513-21.512 51.234-34.82 84.058-34.82zm-30.42 95.064l17.96 16.894c14.087-14.32 28.136-28.687 42.268-42.962 4.194-4.095 7.688-6.063 13.563-.046l16.613 16.992c3.262 3.234 4.805 5.97 4.761 8.875-.045 2.934-1.685 5.551-4.778 8.588l-60.966 59.857-2.975 2.97c-3.934 3.969-5.985 6.039-8.934 6.093-3.138.056-5.451-2.25-10.255-7.058-12.921-12.903-26.577-25.776-39.142-38.926-3.483-3.807-3.178-7.569.532-11.279 6.576-6.262 12.853-13.545 19.328-20.02 1.996-2.033 3.937-2.989 6.041-2.944 2.071.044 3.98 1.06 5.984 2.966zm30.42-77.19c55.785 0 101.006 45.221 101.006 101.004 0 55.785-45.221 101.006-101.006 101.006-55.783 0-101.004-45.221-101.004-101.006 0-55.783 45.221-101.004 101.004-101.004z"/></svg>