<svg xmlns="http://www.w3.org/2000/svg" shape-rendering="geometricPrecision" text-rendering="geometricPrecision" image-rendering="optimizeQuality" fill-rule="evenodd" clip-rule="evenodd" viewBox="0 0 512 468.651"><path d="M394.716 234.087c32.383 0 61.708 13.129 82.931 34.352C498.871 289.663 512 318.985 512 351.368s-13.129 61.707-34.353 82.931c-21.223 21.223-50.548 34.352-82.931 34.352-32.382 0-61.705-13.129-82.929-34.352a117.791 117.791 0 01-15.677-19.412l.049.077H5.382c-2.968 0-5.382-2.414-5.382-5.373 0-125.2 94.538-80.234 139.209-120.278 4.42-6.862 7.109-16.32 9.537-24.86l1.099-3.842c.144-.501.329-.979.551-1.43-11.594-10.286-20.935-20.628-23.893-40.753a21.986 21.986 0 01-7.058-2.55c-5.422-3.079-9.119-8.116-11.543-13.737-2.631-6.097-3.816-13.176-4.087-18.5-.51-9.952-.584-20.385 6.146-28.396 1.411-1.682 2.952-2.927 4.618-3.803-1.506-26.651 3.217-69.357-24.33-77.688C144.335 6.918 206.677-29.434 253.488 30.022c52.422 2.753 73.546 81.149 40.081 122.508l-.16 2.04c9.069-.043 16.929 4.836 19.781 13.686 1.455 4.52 1.57 10.088-.22 16.708-.107.399-.235.787-.38 1.165l-6.791 19.232c-2.765 7.837-7.294 12.918-15.92 13.544-2.06 20.504-13.08 30.865-27.139 44.071l-.252.239c2.947 6.391 6.31 12.941 10.22 18.511.482.687.971 1.357 1.468 2.01 5.246 4.616 11.243 8.206 17.732 11.155a117.788 117.788 0 0119.879-26.452c21.224-21.223 50.547-34.352 82.929-34.352zm-138.684 35.244c-15.297 14.335-30.731 21.207-46.716 21.055-16.28-.156-32.211-7.621-48.286-21.919a480.942 480.942 0 00-3.702-3.261c-4.179 14.646-8.758 32.201-22.018 39.342 46.073 28.089 102.616 29.988 147.413-2.879-11.782-4.878-20.195-18.699-26.691-32.338zM115.459 168.629c3.7-10.589 12.305-7.183 24.563-2.71-4.895-22.203.886-39.549 18.266-51.57 37.086-25.659 48.203-3.699 88.401-36.067 23.093 11.631 43.755 31.293 33.226 92.723 11.144-8.445 27.216-7.659 22.16 11.048l-6.906 19.559c-1.649 4.68-2.755 6.374-8.67 6.061-2.611-.139-5.242-1.146-7.863-2.879 2.42 28.859-11.592 38.279-29.124 55.198-27.002 26.058-52.955 24.982-80.982.049-16.416-14.601-31.002-23.475-31.728-53.497-4.26 1.304-8.287 1.541-11.799-.459-7.005-3.982-9.559-15.587-9.939-23.018-.153-2.984-.026-11.394.395-14.438zm249.173 159.245l17.72 16.667c13.897-14.128 27.758-28.302 41.7-42.385 4.138-4.04 7.584-5.982 13.381-.045l16.392 16.765c3.212 3.189 4.737 5.886 4.695 8.754-.047 2.894-1.663 5.477-4.715 8.473l-60.147 59.052-2.934 2.93c-3.882 3.917-5.906 5.959-8.814 6.012-3.097.056-5.378-2.219-10.118-6.963-12.747-12.73-26.219-25.43-38.617-38.403-3.436-3.756-3.134-7.468.525-11.128 6.518-6.208 12.587-13.442 19.067-19.746 1.967-2.011 3.881-2.954 5.962-2.909 2.043.042 3.927 1.045 5.903 2.926zm30.084-76.154c55.037 0 99.65 44.614 99.65 99.648 0 55.036-44.613 99.65-99.65 99.65-55.034 0-99.647-44.614-99.647-99.65 0-55.034 44.613-99.648 99.647-99.648z"/></svg>