<svg xmlns="http://www.w3.org/2000/svg" shape-rendering="geometricPrecision" text-rendering="geometricPrecision" image-rendering="optimizeQuality" fill-rule="evenodd" clip-rule="evenodd" viewBox="0 0 512 467.448"><path d="M293.987 414.197H6.05a6.056 6.056 0 01-6.05-6.05c0-49.315 6.569-68.349 24.08-88.96 18.538-21.845 42.739-30.202 66.056-35.694-19.36-3.299-35.447-11.415-39.35-22.406 37.431-3.041 51.191-41.928 55.801-82.251 7.026-61.728-2.719-141.15 71.572-171.179 58.994-23.858 135.279 8.259 143.599 93.249-.245 40.91 7.837 102.116 30.939 135.837 12.618-4.564 26.231-7.054 40.423-7.054 32.824 0 62.547 13.308 84.06 34.82 21.513 21.513 34.82 51.235 34.82 84.058 0 32.824-13.307 62.548-34.82 84.06-21.513 21.513-51.236 34.821-84.06 34.821-32.824 0-62.545-13.308-84.058-34.821a119.282 119.282 0 01-15.075-18.43zm2.025-134.21c-6.637-1.861-12.927-4.277-18.43-7.383-7.879-4.175-13.899-9.698-16.903-16.689a31.247 31.247 0 01-2.55-7.391c-12.35 7.774-26.687 12.124-41.107 12.6-16.422.539-30.941-3.764-43.185-11.573a39.164 39.164 0 01-2.494 5.7c-6.918 15.592-23.096 24.401-41.468 27.97-8.719 2.037-17.852 2.768-26.591 2.087 59.902 53.806 115.789 68.096 173.51 38.655a118.193 118.193 0 0119.218-43.976zm66.612 44.766l17.961 16.894c14.086-14.32 28.136-28.687 42.268-42.962 4.194-4.095 7.689-6.063 13.562-.045l16.616 16.993c6.327 6.278 6.335 11.229-.02 17.461l-60.966 59.857-2.975 2.97c-3.934 3.969-5.985 6.039-8.933 6.093-3.139.056-5.451-2.249-10.256-7.058-12.92-12.903-26.576-25.776-39.142-38.926-3.483-3.807-3.178-7.569.532-11.279 6.576-6.262 12.854-13.545 19.328-20.02 3.982-4.049 8.006-3.8 12.025.022zm30.496-77.19c55.785 0 101.006 45.221 101.006 101.004 0 55.786-45.221 101.007-101.006 101.007-55.783 0-101.004-45.221-101.004-101.007 0-55.783 45.221-101.004 101.004-101.004zm-127.155-18.681c32.835-36.317 37.821-72.872 28.463-119.52-22.574-10.463-37.338-33.464-44.905-68.02-9.037 65.792-89.833 62.967-110.151 74.937 0 40.451-2.436 82.03 27.368 114.169 27.147 29.274 73.564 25.608 99.225-1.566z"/></svg>