<svg xmlns="http://www.w3.org/2000/svg" shape-rendering="geometricPrecision" text-rendering="geometricPrecision" image-rendering="optimizeQuality" fill-rule="evenodd" clip-rule="evenodd" viewBox="0 0 512 468.203"><path d="M362.637 325.521l17.959 16.893c14.085-14.319 28.134-28.685 42.264-42.959 4.194-4.095 7.687-6.063 13.562-.045l16.612 16.99c6.335 6.279 6.333 11.225-.018 17.461l-60.96 59.852-2.975 2.969c-3.934 3.97-5.984 6.04-8.933 6.094-3.138.056-5.45-2.25-10.255-7.058-12.919-12.902-26.574-25.774-39.138-38.923-3.483-3.807-3.178-7.568.532-11.278 6.575-6.261 12.852-13.544 19.326-20.018 3.98-4.053 8.005-3.8 12.024.022zm-89.322-47.135c4.89 4.691 10.618 8.37 16.927 11.392l-.03.052c20.563-35.49 58.954-59.365 102.918-59.365 65.644 0 118.87 53.222 118.87 118.868 0 65.646-53.224 118.87-118.87 118.87-41.388 0-77.832-21.164-99.115-53.245H5.455c-3.009 0-5.455-2.447-5.455-5.447C0 275.13 110.039 332.22 149.074 281.953c7.783-10.024 9.803-16.493 9.253-28.593l-.342-7.521c-32.359-1.531-49.17-3.045-71.732-29.922 31.577-33.485 3.809-108.073 18.926-151.868 21.229-61.424 99.71-82.416 143.435-46.472 34.285-3.651 68.834 14.032 76.283 66.892 6.091 43.236-9.071 101.865 12.537 135.222-23.09 22.125-47.646 24.005-77.809 25.623l1.199 9.009c1.47 11.072 3.277 15.222 12.491 24.063zm119.815-30.048c55.781 0 100.998 45.217 100.998 100.995 0 55.781-45.217 100.998-100.998 100.998-55.778 0-100.995-45.217-100.995-100.998 0-55.778 45.217-100.995 100.995-100.995z"/></svg>