<svg xmlns="http://www.w3.org/2000/svg" shape-rendering="geometricPrecision" text-rendering="geometricPrecision" image-rendering="optimizeQuality" fill-rule="evenodd" clip-rule="evenodd" viewBox="0 0 271.6 62.08"><path fill="#B3B3B3" fill-rule="nonzero" d="M11.05 0h249.49c3.04 0 5.8 1.24 7.8 3.25h.01c2 2.01 3.25 4.77 3.25 7.8v39.97c0 3.04-1.25 5.8-3.25 7.8l-.01.01c-2.01 2-4.77 3.25-7.8 3.25H11.05c-3.03 0-5.8-1.25-7.8-3.25S0 54.06 0 51.02V11.05c0-3.03 1.25-5.8 3.25-7.8C5.25 1.24 8.01 0 11.05 0zm249.49 2.61H11.05c-2.32 0-4.43.95-5.96 2.48a8.414 8.414 0 00-2.48 5.96v39.97c0 2.32.96 4.43 2.48 5.96 1.54 1.53 3.65 2.48 5.96 2.48h249.49c2.32 0 4.43-.95 5.96-2.47a8.455 8.455 0 002.48-5.97V11.05c0-2.32-.95-4.43-2.48-5.96a8.414 8.414 0 00-5.96-2.48z"/><path fill="#fff" d="M11.05 1.31h249.49c5.36 0 9.75 4.39 9.75 9.74v39.97c0 5.36-4.39 9.75-9.75 9.75H11.05c-5.35 0-9.74-4.39-9.74-9.75V11.05c0-5.36 4.38-9.74 9.74-9.74z"/><path fill="#FF424D" d="M41.76 19.38c-4.82 0-8.75 3.92-8.75 8.75 0 4.82 3.93 8.73 8.75 8.73 4.81 0 8.71-3.92 8.71-8.73 0-4.82-3.9-8.75-8.71-8.75zM26.19 42.7h4.27V19.38h-4.27V42.7z"/><path fill="#4D4D4D" fill-rule="nonzero" d="M63.11 37.77V24.31h6.97c1.29 0 2.22.25 2.77.75.55.51.83 1.24.83 2.2 0 .96-.18 1.7-.53 2.23-.35.52-.82.86-1.41 1.02v.13c1.74.3 2.61 1.49 2.61 3.55 0 1.08-.29 1.94-.86 2.6-.58.65-1.46.98-2.65.98h-7.73zm5.98-5.36h-1.68v2.19h1.66c.6 0 .9-.36.9-1.1 0-.73-.29-1.09-.88-1.09zm-.32-5.15h-1.36v2h1.34c.54 0 .82-.33.82-1 0-.67-.27-1-.8-1zm15.7 5.43h-4.31v1.63h5.28v3.45h-9.59V24.31h9.48l-.54 3.44h-4.63v1.81h4.31v3.13zm11.73 1.22l.33 3.62c-.91.37-2.04.56-3.41.56-1.36 0-2.45-.14-3.28-.43-.83-.29-1.48-.74-1.95-1.36-.47-.61-.8-1.34-.99-2.17-.19-.83-.28-1.86-.28-3.08s.09-2.25.28-3.09c.19-.84.52-1.57.99-2.19.92-1.19 2.61-1.78 5.06-1.78.55 0 1.19.05 1.93.16.74.1 1.29.24 1.65.4l-.65 3.29c-.93-.2-1.79-.3-2.56-.3-.78 0-1.32.07-1.62.21-.3.15-.45.44-.45.87v5.64c.56.11 1.13.17 1.7.17 1.22 0 2.3-.17 3.25-.52zm1.19-2.86c0-2.46.46-4.25 1.37-5.37.92-1.13 2.58-1.69 4.98-1.69 2.4 0 4.05.56 4.97 1.69.92 1.12 1.38 2.91 1.38 5.37 0 1.22-.1 2.25-.29 3.08-.19.83-.53 1.56-1 2.17-.47.62-1.13 1.07-1.96 1.36-.83.29-1.87.43-3.1.43-1.24 0-2.27-.14-3.1-.43-.83-.29-1.49-.74-1.96-1.36-.48-.61-.81-1.34-1-2.17-.2-.83-.29-1.86-.29-3.08zm4.63-2.24v5.6h1.78c.59 0 1.02-.07 1.29-.21.26-.13.39-.44.39-.93v-5.6h-1.81c-.57 0-.99.07-1.26.2-.26.14-.39.45-.39.94zm13.54 8.96h-4.5l.82-13.46h5.62l1.68 6.85h.15l1.68-6.85h5.62l.82 13.46h-4.5l-.26-6.53h-.15l-1.64 6.53h-3.29l-1.66-6.53h-.13l-.26 6.53zm22.12-5.08h-4.31v1.63h5.27v3.45h-9.58V24.31h9.48l-.54 3.44h-4.63v1.81h4.31v3.13zm9.23 5.08h-4.54l3.49-13.46h6.65L156 37.77h-4.54l-.5-2.13h-3.55l-.5 2.13zm2.16-9.33l-.89 3.77h1.99l-.87-3.77h-.23zm18.08 6.08h-2.79v3.25h-4.31V24.31h6.78c3.09 0 4.63 1.66 4.63 4.97 0 1.83-.4 3.18-1.2 4.05-.31.33-.72.61-1.25.84-.54.23-1.15.35-1.86.35zm-2.79-6.77v3.32h.99c.51 0 .89-.05 1.13-.16.23-.11.35-.36.35-.74v-1.51c0-.39-.12-.64-.35-.74-.24-.11-.62-.17-1.13-.17h-.99zm10.96 10.02h-4.55l3.49-13.46h6.65l3.49 13.46h-4.54l-.5-2.13h-3.55l-.49 2.13zm2.15-9.33l-.88 3.77h1.98l-.86-3.77h-.24zm16.58-.69h-3.12v10.02h-4.31V27.75h-3.12v-3.44h10.55v3.44zm12.92 10.02h-4.74l-1.76-4.01h-.93v4.01h-4.31V24.31h6.79c3.08 0 4.63 1.57 4.63 4.71 0 2.16-.67 3.58-2.01 4.27l2.33 4.48zm-7.43-10.02v2.7h.99c.52 0 .89-.06 1.13-.17.24-.1.36-.35.36-.74v-.88c0-.39-.12-.64-.36-.74-.24-.11-.61-.17-1.13-.17h-.99zm17.55 4.94h-4.31v1.63h5.28v3.45h-9.58V24.31h9.47l-.54 3.44h-4.63v1.81h4.31v3.13zm2.15-1.64c0-2.46.46-4.25 1.38-5.37.92-1.13 2.58-1.69 4.98-1.69 2.39 0 4.05.56 4.97 1.69.92 1.12 1.38 2.91 1.38 5.37 0 1.22-.1 2.25-.29 3.08-.2.83-.53 1.56-1 2.17-.48.62-1.13 1.07-1.96 1.36-.83.29-1.87.43-3.1.43-1.24 0-2.27-.14-3.1-.43-.84-.29-1.49-.74-1.96-1.36-.48-.61-.81-1.34-1.01-2.17-.19-.83-.29-1.86-.29-3.08zm4.63-2.24v5.6h1.79c.59 0 1.02-.07 1.28-.21.27-.13.4-.44.4-.93v-5.6h-1.81c-.57 0-.99.07-1.26.2-.26.14-.4.45-.4.94zm17.49 8.96l-3.3-4.78c-.11-.16-.18-.51-.21-1.04h-.09v5.82h-4.3V24.31h4.04l3.3 4.78c.11.16.19.5.21 1.03h.09v-5.81h4.31v13.46h-4.05z"/></svg>