<svg xmlns="http://www.w3.org/2000/svg" shape-rendering="geometricPrecision" text-rendering="geometricPrecision" image-rendering="optimizeQuality" fill-rule="evenodd" clip-rule="evenodd" viewBox="0 0 403 512.4"><path fill-rule="nonzero" d="M18.67 114.75h85.03v-17.3c0-26.81 10.97-51.18 28.62-68.83S174.33 0 201.15 0c26.81 0 51.19 10.97 68.84 28.62 17.65 17.65 28.61 42.02 28.61 68.83v17.3h85.73c5.15 0 9.81 2.13 13.17 5.49l.91 1.02c2.86 3.3 4.59 7.59 4.59 12.16v311.99c0 18.39-7.55 35.14-19.7 47.28-12.14 12.15-28.89 19.71-47.28 19.71H66.98c-18.35 0-35.12-7.56-47.28-19.72C7.55 480.58 0 463.83 0 445.41V133.42c0-5.14 2.11-9.83 5.48-13.19 3.36-3.37 8.05-5.48 13.19-5.48zm128.78 229.1c-7.06 0-12.78-5.72-12.78-12.77 0-7.06 5.72-12.78 12.78-12.78h108.1c7.05 0 12.77 5.72 12.77 12.78 0 7.05-5.72 12.77-12.77 12.77h-108.1zm-19.99-229.1h147.38v-17.3c0-20.25-8.29-38.68-21.65-52.03-13.36-13.36-31.79-21.66-52.04-21.66s-38.68 8.3-52.03 21.66c-13.36 13.35-21.66 31.78-21.66 52.03v17.3zm-23.76 46.09v-22.31H23.78v306.88c0 11.86 4.88 22.65 12.71 30.48 7.81 7.87 18.62 12.72 30.49 12.72h269.04c11.82 0 22.63-4.89 30.47-12.73 7.84-7.83 12.73-18.64 12.73-30.47V138.53H298.6v22.56c8.82 4.48 14.86 13.64 14.86 24.21 0 14.99-12.15 27.15-27.15 27.15-14.99 0-27.15-12.16-27.15-27.15 0-10.9 6.42-20.29 15.68-24.62v-22.15H127.46v22.4c8.99 4.42 15.18 13.67 15.18 24.37 0 14.99-12.15 27.15-27.14 27.15-15 0-27.15-12.16-27.15-27.15 0-10.77 6.26-20.07 15.35-24.46z"/></svg>